# xmcd
#
# Track frame offsets:
# 183
# 2998
# 19158
# 39453
# 51185
# 66675
# 87563
# 111663
# 126478
# 139388
# 150205
# 166993
# 188600
# 195785
#
# Disc length: 2943 seconds
#
#
# Revision: 1
# Processed by: cddbd v1.4PL0 Copyright (c) Steve Scherf et al.
# Submitted via: FreeRIP 2.11 
#
DISCID=c40b7d0e
DTITLE=Gutter Brothers - Gone To The Dogs
DYEAR=1991
DGENRE=Blues
TTITLE0=Main Titles
TTITLE1=Everlasting Shining Peace Of Mind
TTITLE2=Girl For Granted
TTITLE3='Stow Boogie
TTITLE4=Where You Should Be
TTITLE5=History
TTITLE6=Can't Sing Those Love Songs Anymore
TTITLE7=The Spoiler
TTITLE8=Shout
TTITLE9=Son of Ska
TTITLE10=Gone To The Dogs
TTITLE11=Mr Nasty
TTITLE12=Piranha In A Swimming Pool
TTITLE13=Runaway Train
EXTD=
EXTT0=
EXTT1=
EXTT2=
EXTT3=
EXTT4=
EXTT5=
EXTT6=
EXTT7=
EXTT8=
EXTT9=
EXTT10=
EXTT11=
EXTT12=
EXTT13=
PLAYORDER=
